<svg width="12" height="12" viewBox="0 0 12 12" fill="none" xmlns="http://www.w3.org/2000/svg">
<path d="M6.74999 0.750038C6.74999 0.335825 6.4142 3.8147e-05 5.99999 3.8147e-05C5.58578 3.8147e-05 5.24999 0.335825 5.24999 0.750038V5.25H0.75C0.335786 5.25 0 5.58579 0 6C0 6.41422 0.335786 6.75 0.75 6.75H5.24999L5.25 11.25C5.25 11.6642 5.58579 12 6 12C6.41421 12 6.75 11.6642 6.75 11.25L6.74999 6.75H11.25C11.6642 6.75 12 6.41422 12 6C12 5.58579 11.6642 5.25 11.25 5.25H6.74999V0.750038Z" fill="white"/>
</svg>
