<svg width="24" height="25" viewBox="0 0 24 25" fill="none" xmlns="http://www.w3.org/2000/svg">
<g clip-path="url(#clip0_368_5913)">
<path d="M9 4.5H5C4.44772 4.5 4 4.94772 4 5.5V9.5C4 10.0523 4.44772 10.5 5 10.5H9C9.55228 10.5 10 10.0523 10 9.5V5.5C10 4.94772 9.55228 4.5 9 4.5Z" fill="#4640DE" stroke="#4640DE" stroke-width="2" stroke-linecap="round" stroke-linejoin="round"/>
<path d="M19 4.5H15C14.4477 4.5 14 4.94772 14 5.5V9.5C14 10.0523 14.4477 10.5 15 10.5H19C19.5523 10.5 20 10.0523 20 9.5V5.5C20 4.94772 19.5523 4.5 19 4.5Z" fill="#4640DE" stroke="#4640DE" stroke-width="2" stroke-linecap="round" stroke-linejoin="round"/>
<path d="M9 14.5H5C4.44772 14.5 4 14.9477 4 15.5V19.5C4 20.0523 4.44772 20.5 5 20.5H9C9.55228 20.5 10 20.0523 10 19.5V15.5C10 14.9477 9.55228 14.5 9 14.5Z" fill="#4640DE" stroke="#4640DE" stroke-width="2" stroke-linecap="round" stroke-linejoin="round"/>
<path d="M19 14.5H15C14.4477 14.5 14 14.9477 14 15.5V19.5C14 20.0523 14.4477 20.5 15 20.5H19C19.5523 20.5 20 20.0523 20 19.5V15.5C20 14.9477 19.5523 14.5 19 14.5Z" fill="#4640DE" stroke="#4640DE" stroke-width="2" stroke-linecap="round" stroke-linejoin="round"/>
</g>
<defs>
<clipPath id="clip0_368_5913">
<rect width="24" height="24" fill="white" transform="translate(0 0.5)"/>
</clipPath>
</defs>
</svg>
